# xmcd
#
# Track frame offsets:
#	150
#	11565
#	27663
#	42882
#	56949
#	74976
#	90657
#	109161
#	123696
#	140535
#	157023
#	176562
#	194286
#	208317
#	229602
#	246003
#	260088
#	272556
#	287589
#	302820
#	330330
#
# Disc length: 4713 seconds
#
# Revision: 2
# Processed by: cddbd v1.5.2PL0 Copyright (c) Steve Scherf et al.
# Submitted via: EasyCDDAExtractor 12.1.0.1
#
DISCID=46126715
DTITLE=Various Artist - 2 Fois Plus 2 Hits 2005 Vol.2
DYEAR=2005
DGENRE=Dance
TTITLE0=Marta Isabel  - Antes Muerta Que Sencilla 
TTITLE1=Global Deejays - What A Feeling (Flashdance)
TTITLE2=Jean Dujardin - Le Casse De Brice 
TTITLE3=Le 6-9 - Un Casting Parfait
TTITLE4=Chimène Badi - Je Viens Du Sud
TTITLE5=Pierrick Lilliu - A Coeur Ouvert
TTITLE6=Wallen - L'olivier
TTITLE7=Papa AP - Gasolina
TTITLE8=Leslie - Vivons Pour Demain
TTITLE9=La League - 06 Donne-Moi Ton Numéro
TTITLE10=Rohff (Avec Intouchable)  - Ca Fait Plaisir
TTITLE11=Juliet - Avalon
TTITLE12=Mylo - Drop The Pressure
TTITLE13=Daft Punk - Technologic
TTITLE14=David Guetta Feat. JD Davis - The World Is Mine
TTITLE15=Club 99 - Dance In Love 
TTITLE16=Pablo Arena - Chacarron
TTITLE17=Anggun - Etre Une Femme
TTITLE18=Stereo Blackstarr and Julian Cely - Cargo De Nuit 
TTITLE19=Eskobar Feat. Emma Daumas - You Got Me
TTITLE20=Various Artist - Data
EXTD=YEAR: 2005
EXTT0=
EXTT1=
EXTT2=
EXTT3=
EXTT4=
EXTT5=
EXTT6=
EXTT7=
EXTT8=
EXTT9=
EXTT10=
EXTT11=
EXTT12=
EXTT13=
EXTT14=
EXTT15=
EXTT16=
EXTT17=
EXTT18=
EXTT19=
EXTT20=
PLAYORDER=
